{"title":"Focus.2015.BRRip.480p.x264.AAC-VYTO [P2PDL]","uid":12163564,"size":395233540,"categoryP":"video","categoryS":"movies","magnet":"?xt=urn:btih:b4d4098d4298ea07abd5a58899fea629459b25cb&amp;dn=Focus.2015.BRRip.480p.x264.AAC-VYTO+%5BP2PDL%5D&amp;tr=udp%3A%2F%2Ftracker.openbittorrent.com%3A80&amp;tr=udp%3A%2F%2Fopen.demonii.com%3A1337&amp;tr=udp%3A%2F%2Ftracker.coppersurfer.tk%3A6969&amp;tr=udp%3A%2F%2Fexodus.desync.com%3A6969","seeders":4,"leechers":4,"uploader":"ValidusVyto","files":7,"time":1437977356,"description":"____    ____ ____    ____ .___________.  ______   \n     /   /      /   / |           | /  __    \n    /   /      /   /  `---|  |----`|  |  |  | \n        /     _    _/       |  |     |  |  |  | \n       /        |  |         |  |     |  `--'  | \n    __/         |__|         |__|      ______/  \n                                                  \nPresenting Small Encodes with quality for years!\n                                                                                                   \n                                                                                                   \n\nFocus.2015.BRRip.480p.x264.AAC-VYTO\n\n\nGenre: Comedy, Crime, Drama &lt;a href=&quot;\nhttp://www.imdb.com/title/tt2381941/&quot; rel=&quot;nofollow&quot; target=&quot;_NEW&quot;&gt;\nhttp://www.imdb.com/title/tt2381941/&lt;/a&gt;\n\n\nGeneral\nFormat                         : MPEG-4\nFile size                      : 372 MiB\nDuration                       : 1h 44mn\nOverall bit rate               : 496 Kbps\n\nVideo\nFormat                         : AVC\nDuration                       : 1h 44mn\nBit rate                       : 461 Kbps\nWidth                          : 720 pixels\nHeight                         : 400 pixels\nDisplay aspect ratio           : 16:9\nFrame rate mode                : Constant\nFrame rate                     : 23.976 fps\nBit depth                      : 8 bits\nStream size                    : 345 MiB (93%)\nWriting library                : x264 core 146 r2538 121396c\n\nAudio\nFormat                         : AAC\nBit rate mode                  : Variable\nBit rate                       : 32.0 Kbps\nChannel(s)                     : 2 channels\nChannel positions              : Front: L R\nSampling rate                  : 48.0 KHz\nStream size                    : 23.9 MiB (6%)\nLanguage                       : English\n\nSubtitle                       : Yes (English)\nSource                         : 720p.BluRay.x264-WiKi\n\n\nScreenshots:\n &lt;a href=&quot;\nhttp://ititli.com/Xl&quot; rel=&quot;nofollow&quot; target=&quot;_NEW&quot;&gt;\nhttp://ititli.com/Xl&lt;/a&gt; &lt;a href=&quot;\nhttp://ititli.com/Xm&quot; rel=&quot;nofollow&quot; target=&quot;_NEW&quot;&gt;\nhttp://ititli.com/Xm&lt;/a&gt; &lt;a href=&quot;\nhttp://ititli.com/Xx&quot; rel=&quot;nofollow&quot; target=&quot;_NEW&quot;&gt;\nhttp://ititli.com/Xx&lt;/a&gt; &lt;a href=&quot;\nhttp://ititli.com/X7&quot; rel=&quot;nofollow&quot; target=&quot;_NEW&quot;&gt;\nhttp://ititli.com/X7&lt;/a&gt; &lt;a href=&quot;\nhttp://ititli.com/XC&quot; rel=&quot;nofollow&quot; target=&quot;_NEW&quot;&gt;\nhttp://ititli.com/XC&lt;/a&gt; &lt;a href=&quot;\nhttp://ititli.com/XF&quot; rel=&quot;nofollow&quot; target=&quot;_NEW&quot;&gt;\nhttp://ititli.com/XF&lt;/a&gt; &lt;a href=&quot;\nhttp://ititli.com/XJ&quot; rel=&quot;nofollow&quot; target=&quot;_NEW&quot;&gt;\nhttp://ititli.com/XJ&lt;/a&gt; &lt;a href=&quot;\nhttp://ititli.com/X5&quot; rel=&quot;nofollow&quot; target=&quot;_NEW&quot;&gt;\nhttp://ititli.com/X5&lt;/a&gt; &lt;a href=&quot;\nhttp://ititli.com/XB&quot; rel=&quot;nofollow&quot; target=&quot;_NEW&quot;&gt;\nhttp://ititli.com/XB&lt;/a&gt; &lt;a href=&quot;\nhttp://ititli.com/XN&quot; rel=&quot;nofollow&quot; target=&quot;_NEW&quot;&gt;\nhttp://ititli.com/XN&lt;/a&gt; &lt;a href=&quot;\nhttp://ititli.com/XP&quot; rel=&quot;nofollow&quot; target=&quot;_NEW&quot;&gt;\nhttp://ititli.com/XP&lt;/a&gt; &lt;a href=&quot;\nhttp://ititli.com/Xf&quot; rel=&quot;nofollow&quot; target=&quot;_NEW&quot;&gt;\nhttp://ititli.com/Xf&lt;/a&gt;\n\n----------------------------------------------------------------------------------------------------\n\n\nEncoder Notes: Looking For Early Access To Anything You Can Provide DVDScr, R5, DVDR, BluRay, Direct\nAudio, Music Releases and Seedboxes. If You Got anything to offer please contact us.\n\nSupport us by donating BC - 1FgwdzPsd1y25Gea8wP1qni35uGCtmkRCD","torrent":{"xt":"urn:btih:b4d4098d4298ea07abd5a58899fea629459b25cb","amp;dn":"Focus.2015.BRRip.480p.x264.AAC-VYTO+%5BP2PDL%5D","amp;tr":["udp%3A%2F%2Ftracker.openbittorrent.com%3A80","udp%3A%2F%2Fopen.demonii.com%3A1337","udp%3A%2F%2Ftracker.coppersurfer.tk%3A6969","udp%3A%2F%2Fexodus.desync.com%3A6969"],"infoHash":"b4d4098d4298ea07abd5a58899fea629459b25cb","infoHashBuffer":{"type":"Buffer","data":[180,212,9,141,66,152,234,7,171,213,165,136,153,254,166,41,69,155,37,203]},"announce":[],"urlList":[]}}